<?xml version="1.0" encoding="UTF-8"?>
<!DOCTYPE svg PUBLIC "-//W3C//DTD SVG 1.1//EN" "http://www.w3.org/Graphics/SVG/1.1/DTD/svg11.dtd">
<!-- Creator: CorelDRAW -->
<svg xmlns="http://www.w3.org/2000/svg" xml:space="preserve" width="2048px" height="2048px" style="shape-rendering:geometricPrecision; text-rendering:geometricPrecision; image-rendering:optimizeQuality; fill-rule:evenodd; clip-rule:evenodd"
viewBox="0 0 2048 2048"
 xmlns:xlink="http://www.w3.org/1999/xlink">
 <defs>
  <style type="text/css">
   <![CDATA[
    .fil0 {fill:none}
    .fil1 {fill:#414141}
    .fil4 {fill:#A4A4A4}
    .fil5 {fill:#B5B5B6}
    .fil6 {fill:#D5D5D6}
    .fil3 {fill:#DFDFDF}
    .fil2 {fill:#ECECEC}
   ]]>
  </style>
 </defs>
 <g id="Layer_x0020_1">
  <metadata id="CorelCorpID_0Corel-Layer"/>
  <g id="_463098656">
   <rect id="_463096136" class="fil0" width="2048" height="2048"/>
   <rect id="_463096280" class="fil0" x="255.999" y="255.999" width="1536" height="1536"/>
   <path id="_463096448" class="fil1" d="M922.738 800.58l-0.00354331 -0.0283465c0.121654,-0.0153543 0.109843,-0.00354331 0.00354331,0.0283465z"/>
   <path id="_463096808" class="fil2" d="M1169.13 684.213c137.797,31.0453 257.599,106.187 346.42,209.541 96.58,112.381 156.51,258.227 163.011,416.996l1.36063 33.2504 -33.2362 0 -1262.68 0 -33.2551 0 1.37953 -33.2504c6.53741,-157.515 69.8634,-302.233 169.305,-414.205 93.1123,-104.843 217.964,-181.096 357.578,-212.379 -1.44095,-8.34213 -2.19095,-16.6914 -2.19095,-24.9307 0,-40.6607 16.4823,-77.4827 43.1351,-104.137 26.6457,-26.6457 63.4583,-43.1303 104.131,-43.1303 40.5756,0 77.3894,16.5697 104.104,43.3252 26.6646,26.7024 43.1622,63.5327 43.1622,104.107 0,8.2382 -0.768898,16.552 -2.22166,24.8126z"/>
   <path id="_463097000" class="fil3" d="M1015.33 1344l-631.332 0 -33.2551 0 1.37953 -33.2504c6.53741,-157.515 69.8634,-302.233 169.305,-414.205 93.1123,-104.843 217.964,-181.096 357.578,-212.379 -1.44095,-8.34213 -2.19095,-16.6914 -2.19095,-24.9307 0,-40.6607 16.4823,-77.4827 43.1351,-104.137 24.7205,-24.7205 58.193,-40.6926 95.38,-42.8717l0 831.773z"/>
   <path id="_463097336" class="fil4" d="M517.13 1227.27c-19.5591,0 -35.563,-15.8386 -35.563,-35.4449 0,-19.5933 16.0039,-35.5973 35.563,-35.5973 19.6051,0 35.4437,15.8386 35.4437,35.5973 0,19.6063 -15.8386,35.4449 -35.4437,35.4449z"/>
   <path id="_463097240" class="fil4" d="M962.004 826.853c-4.4067,-15.9414 -20.1638,-25.6961 -36.1264,-22.9477l0.00708662 0.0590552 -0.0141732 0.00354331 -3.09921 0.698032c0.777166,-0.15 2.50748,-0.538583 3.09921,-0.698032l-0.00826772 -0.0602363 0.0153543 -0.00236221 -0.0141732 -0.10748c-159.868,20.7626 -302.259,131.136 -374.985,273.056 -8.00788,15.6709 -1.79646,34.8673 13.8744,42.8752 15.6709,8.00788 34.8673,1.79646 42.8752,-13.8744 103.964,-202.88 295.187,-234.383 323.986,-238.362 20.7721,-1.09961 36.1122,-19.937 30.3898,-40.6394z"/>
   <path id="_463097672" class="fil5" d="M958.751 823.498c-4.4067,-15.9414 -20.1638,-25.6961 -36.1264,-22.9477l0.00708662 0.0590552 -0.0141732 0.00354331 -3.09921 0.698032c0.777166,-0.15 2.50748,-0.538583 3.09921,-0.698032l-0.00826772 -0.0602363 0.0153543 -0.00236221 -0.0141732 -0.10748c-159.868,20.7626 -302.259,131.136 -374.985,273.056 -8.00788,15.6709 -1.79646,34.8673 13.8744,42.8752 15.6709,8.00788 34.8673,1.79646 42.8752,-13.8744 103.964,-202.88 295.187,-234.383 323.986,-238.362 20.7721,-1.09961 36.1122,-19.937 30.3898,-40.6394z"/>
   <path id="_463097888" class="fil6" d="M1169.13 684.213c137.797,31.0453 257.599,106.187 346.42,209.541 96.58,112.381 156.51,258.227 163.011,416.996l1.36063 33.2504 -33.2362 0 -630.991 0 -0.359055 0 0 -831.773 1.08898 -0.0625985c2.53583,-0.129921 5.09174,-0.196063 7.66182,-0.196063 40.5756,0 77.3894,16.5697 104.104,43.3252 26.6646,26.7024 43.1622,63.5327 43.1622,104.107 0,8.2382 -0.768898,16.552 -2.22166,24.8126z"/>
   <path id="_463098200" class="fil5" d="M256.064 1336c512,0 1024,0 1536,0 42.0933,0 42.0933,104.003 0,104.003 -512,0 -1024,0 -1536,0 -42.0933,0 -42.0933,-104.003 0,-104.003z"/>
   <path id="_463098368" class="fil5" d="M515.563 1223.04c-19.5591,0 -35.563,-15.8386 -35.563,-35.4449 0,-19.5933 16.0039,-35.5973 35.563,-35.5973 19.6051,0 35.4437,15.8386 35.4437,35.5973 0,19.6063 -15.8386,35.4449 -35.4437,35.4449z"/>
  </g>
 </g>
</svg>
